<svg width="146" height="28" viewBox="0 0 146 28" fill="none" xmlns="http://www.w3.org/2000/svg">
<path d="M36.6624 27.4058H35.8691V18.1253H36.6624C36.6624 20.6213 37.5483 22.7456 39.32 24.4981C41.1181 26.2507 43.2996 27.1269 45.8646 27.1269C46.9223 27.1269 47.7685 26.8216 48.4032 26.2108C49.0642 25.5736 49.3948 24.7371 49.3948 23.7015C49.3948 22.5332 48.6411 21.5374 47.1339 20.7143C46.3142 20.2894 44.8995 19.6256 42.8898 18.7227C40.8801 17.7934 39.4654 17.01 38.6457 16.3727C37.0062 15.0982 36.279 13.412 36.4641 11.3143C36.6757 9.21654 37.4689 7.59677 38.844 6.45496C40.219 5.2866 41.7659 4.70243 43.4847 4.70243C45.23 4.70243 46.7901 4.94141 48.1652 5.41937C49.5667 5.87078 50.3599 6.09649 50.545 6.09649C51.0739 6.09649 51.3383 5.6318 51.3383 4.70243H52.1316V11.9914H51.3383C51.3383 10.0795 50.6376 8.52614 49.2361 7.33123C47.8346 6.10977 46.0365 5.49903 43.8417 5.49903C42.8633 5.49903 42.0965 5.79112 41.5412 6.3753C40.9859 6.93293 40.7082 7.55694 40.7082 8.24733C40.7082 8.93773 40.8008 9.4688 40.9859 9.84055C41.171 10.2123 41.4883 10.5575 41.9378 10.8761C42.4138 11.1682 42.8237 11.4072 43.1674 11.5931C43.5112 11.779 44.0533 12.0312 44.7937 12.3499C45.5605 12.6685 46.0894 12.8942 46.3803 13.027C47.8346 13.6908 48.694 14.0891 48.9585 14.2219C49.2229 14.3281 49.6063 14.514 50.1087 14.7795C50.6112 15.0451 50.9814 15.284 51.2193 15.4965C51.4838 15.7089 51.8143 15.9744 52.211 16.2931C52.6076 16.6117 52.8985 16.9436 53.0836 17.2888C53.2687 17.6075 53.4538 17.9792 53.6389 18.4041C54.0091 19.2538 54.1413 20.2496 54.0355 21.3914C53.824 23.5422 53.0175 25.1885 51.616 26.3303C50.241 27.4456 48.3767 28.0032 46.0233 28.0032C43.9078 28.0032 41.8056 27.4589 39.7166 26.3702C39.0026 25.9984 38.4738 25.8125 38.13 25.8125C37.1516 25.8125 36.6624 26.3436 36.6624 27.4058Z" fill="white"/>
<path d="M72.9223 19.4397H60.9436C61.2081 24.1131 63.0194 26.4498 66.3777 26.4498C67.2767 26.4498 68.2948 26.2374 69.4319 25.8125C70.5954 25.3877 71.4415 24.7902 71.9704 24.0202L72.5257 24.4185C71.944 25.401 70.9523 26.2108 69.5508 26.8481C68.1494 27.4854 66.7479 27.8041 65.3464 27.8041C63.9714 27.8041 62.7285 27.6713 61.6179 27.4058C60.5073 27.1137 59.4232 26.6357 58.3654 25.9719C57.3077 25.308 56.4748 24.3123 55.8666 22.9846C55.2848 21.6569 54.9939 20.0504 54.9939 18.1651C54.9939 14.9521 55.8798 12.5756 57.6515 11.0355C59.4232 9.4688 61.565 8.68547 64.0771 8.68547C66.6157 8.68547 68.7179 9.53518 70.3838 11.2346C72.0762 12.934 72.9223 15.6691 72.9223 19.4397ZM60.904 18.6431H67.3693C67.3693 16.2001 67.1049 14.0626 66.576 12.2304C66.0736 10.3982 65.2539 9.48207 64.1168 9.48207C62.9797 9.48207 62.16 10.3716 61.6576 12.1507C61.1552 13.9033 60.904 15.9213 60.904 18.2049V18.6431Z" fill="white"/>
<path d="M81.9339 26.6091H83.9171V27.4058H74.001V26.6091H75.9842V9.88038H74.3976V9.08377H81.9339V26.6091ZM82.2909 3.82616C82.2909 4.78209 81.9471 5.60525 81.2596 6.29564C80.5985 6.95948 79.7788 7.2914 78.8004 7.2914C77.8484 7.2914 77.0287 6.95948 76.3412 6.29564C75.6537 5.60525 75.3099 4.78209 75.3099 3.82616C75.3099 2.84367 75.6537 2.00724 76.3412 1.31684C77.0287 0.626447 77.8484 0.28125 78.8004 0.28125C79.7788 0.28125 80.5985 0.626447 81.2596 1.31684C81.9471 2.00724 82.2909 2.84367 82.2909 3.82616Z" fill="white"/>
<path d="M107.433 26.6091V27.4058C103.836 27.4058 101.337 27.1535 99.936 26.649C98.561 26.1179 97.1991 24.8168 95.8505 22.7456L93.3517 18.8821L92.836 19.36V26.6091H94.8193V27.4058H84.9031V26.6091H86.8863V1.51599H84.9031V0.719386H92.836V18.1651L101.126 9.88038H97.9131V9.08377H105.449V9.88038H102.316L97.5561 14.6202L102.316 21.7897C104.458 25.0027 106.163 26.6091 107.433 26.6091Z" fill="white"/>
<path d="M114.164 25.0159C114.746 26.3436 115.751 27.0075 117.179 27.0075C118.607 27.0075 119.625 26.3303 120.233 24.9761C120.841 23.6219 121.145 21.3914 121.145 18.2846C121.145 15.1513 120.841 12.9075 120.233 11.5533C119.625 10.1725 118.607 9.48207 117.179 9.48207C115.751 9.48207 114.746 10.1725 114.164 11.5533C113.582 12.9075 113.291 15.1513 113.291 18.2846C113.291 21.4179 113.582 23.6617 114.164 25.0159ZM117.099 27.8041C114.587 27.8041 112.313 26.9809 110.277 25.3346C108.241 23.6883 107.223 21.3515 107.223 18.3244C107.223 16.7047 107.514 15.2575 108.095 13.9829C108.704 12.7083 109.497 11.6993 110.475 10.9558C111.48 10.2123 112.551 9.65467 113.688 9.28292C114.825 8.88462 115.989 8.68547 117.179 8.68547C118.369 8.68547 119.532 8.88462 120.669 9.28292C121.833 9.65467 122.904 10.2123 123.882 10.9558C124.887 11.6993 125.693 12.7083 126.301 13.9829C126.91 15.2575 127.214 16.6914 127.214 18.2846C127.214 19.8778 126.91 21.2984 126.301 22.5464C125.693 23.7945 124.887 24.7902 123.882 25.5337C121.872 27.0473 119.611 27.8041 117.099 27.8041Z" fill="white"/>
<path d="M138.121 27.4058H128.205V26.6091H130.189V9.88038H128.205V9.08377H136.138V13.8236C136.376 12.5225 136.799 11.4603 137.407 10.6372C138.042 9.81399 138.73 9.26965 139.47 9.00411C140.237 8.73857 140.964 8.60581 141.652 8.60581C142.366 8.60581 143.04 8.73857 143.674 9.00411C144.336 9.24309 144.825 9.74761 145.142 10.5177C145.459 11.2612 145.473 12.0179 145.182 12.788C144.891 13.5315 144.375 14.0626 143.635 14.3812C142.921 14.6999 142.26 14.7397 141.652 14.5007C141.043 14.2617 140.607 13.9431 140.343 13.5448C140.078 13.1199 139.893 12.7216 139.787 12.3499C139.523 11.3674 139.166 10.8761 138.716 10.8761C138.214 10.8761 137.659 11.7524 137.051 13.5049C136.442 15.2309 136.138 17.0631 136.138 19.0015V26.6091H138.121V27.4058Z" fill="white"/>
<path fill-rule="evenodd" clip-rule="evenodd" d="M9.40725 0.746917C4.22315 2.51852 0.413299 7.25485 0 12.9336H7.21037C7.94671 12.9336 8.68004 12.8932 9.40725 12.8133V0.746917ZM0.0843535 15.8127C0.787769 21.1229 4.47571 25.4911 9.40725 27.1764V16.5122C7.70198 16.0504 5.93413 15.8127 4.14814 15.8127H0.0843535ZM12.2817 27.8277C12.8205 27.8909 13.3687 27.9234 13.9244 27.9234C17.4479 27.9234 20.6665 26.6181 23.1232 24.4648L15.4037 19.2553C14.4115 18.5858 13.3664 18.0093 12.2817 17.5299V27.8277ZM25.1003 22.3313C26.8497 19.9991 27.8861 17.1014 27.8861 13.9617C27.8861 11.725 27.3601 9.61115 26.4251 7.73708L19.7678 12.0767C17.8257 13.3426 15.7141 14.3008 13.5075 14.9291C14.7243 15.4713 15.8972 16.1206 17.0116 16.8727L25.1003 22.3313ZM24.8836 5.31069C22.3266 2.07585 18.3679 0 13.9244 0C13.3687 0 12.8205 0.0324704 12.2817 0.0956176V12.2841C14.3713 11.7398 16.3705 10.86 18.1981 9.66863L24.8836 5.31069Z" fill="white"/>
</svg>
